# xmcd
#
# Track frame offsets:
#	150
#	13028
#	33038
#	52888
#	70056
#	103163
#	117392
#	137841
#	154951
#	180705
#	194741
#
# Disc length: 2889 seconds
#
# Revision: 3
# Processed by: cddbd v1.5.2PL0 Copyright (c) Steve Scherf et al.
# Submitted via: EasyCDDAExtractor 15.3.0.1
#
DISCID=980b470b
DTITLE=Lucero - En Vivo - Auditorio Nacional - CD 2 - Ranchero
DYEAR=2007
DGENRE=Latin
TTITLE0=Llorar
TTITLE1=Cielo Rojo
TTITLE2=Amaneci En Tus Brazos
TTITLE3=La Camisa Negra
TTITLE4=Popurri Kumbia (Mi Dulce Niña, Sabes A Chocolate, Chiquilla)
TTITLE5=Arboles De La Barranca
TTITLE6=Tristes Recuerdos
TTITLE7=Vete Por Donde Llegaste
TTITLE8=Popurri K-Paz (Mi Credo, Pero Te Vas A Arrepentir)
TTITLE9=Que Te Ruegue Quien Te Quiera
TTITLE10=La Puerta Negra
EXTD=
EXTT0=
EXTT1=
EXTT2=
EXTT3=
EXTT4=
EXTT5=
EXTT6=
EXTT7=
EXTT8=
EXTT9=
EXTT10=
PLAYORDER=
